<?xml version="1.0" encoding="utf-8"?>
<!-- Generator: Adobe Illustrator 24.0.3, SVG Export Plug-In . SVG Version: 6.00 Build 0)  -->
<svg version="1.1" id="Layer_1" xmlns="http://www.w3.org/2000/svg" xmlns:xlink="http://www.w3.org/1999/xlink" x="0px" y="0px"
	 viewBox="0 0 1600 500" style="enable-background:new 0 0 1600 500;" xml:space="preserve">
<style type="text/css">
	.st0{fill:#CCCCCC;}
	.st1{fill:#F2F2F2;}
</style>
<ellipse class="st0" cx="288.62" cy="-18.26" rx="60.56" ry="57.53"/>
<ellipse class="st0" cx="370.73" cy="-6.04" rx="49.27" ry="49.04"/>
<path class="st1" d="M522.86,59.2l-0.87-0.18c-0.25-0.05-0.52,0.02-0.71,0.2l-0.64,0.61c-0.47,0.45-1.26,0.17-1.33-0.48l-0.1-0.88
	c-0.03-0.26-0.18-0.49-0.41-0.61l-0.78-0.42c-0.58-0.31-0.55-1.15,0.05-1.42l0.81-0.37c0.24-0.11,0.41-0.32,0.45-0.58l0.16-0.87
	c0.12-0.64,0.92-0.88,1.36-0.39l0.6,0.65c0.18,0.19,0.43,0.29,0.69,0.25l0.88-0.12c0.65-0.09,1.12,0.6,0.79,1.17l-0.44,0.77
	c-0.13,0.23-0.14,0.5-0.02,0.74l0.39,0.8C524.01,58.67,523.5,59.33,522.86,59.2z"/>
<path class="st1" d="M630.53,64.12l-1.48-0.31c-0.44-0.09-0.89,0.04-1.21,0.35l-1.09,1.05c-0.81,0.78-2.16,0.29-2.28-0.83
	l-0.17-1.51c-0.05-0.44-0.31-0.83-0.71-1.04l-1.34-0.72c-0.99-0.53-0.94-1.96,0.08-2.42l1.38-0.63c0.41-0.18,0.69-0.55,0.77-0.99
	l0.27-1.49c0.2-1.1,1.58-1.5,2.33-0.67l1.02,1.12c0.3,0.33,0.74,0.49,1.18,0.43l1.5-0.21c1.11-0.15,1.91,1.03,1.36,2.01l-0.75,1.32
	c-0.22,0.39-0.24,0.86-0.04,1.26l0.66,1.36C632.51,63.21,631.62,64.34,630.53,64.12z"/>
<path class="st1" d="M315.95,125.85l-0.87-0.18c-0.25-0.05-0.52,0.02-0.71,0.2l-0.64,0.61c-0.47,0.45-1.26,0.17-1.33-0.48l-0.1-0.88
	c-0.03-0.26-0.18-0.49-0.41-0.61l-0.78-0.42c-0.58-0.31-0.55-1.15,0.05-1.42l0.81-0.37c0.24-0.11,0.41-0.32,0.45-0.58l0.16-0.87
	c0.12-0.64,0.92-0.88,1.36-0.39l0.6,0.65c0.18,0.19,0.43,0.29,0.69,0.25l0.88-0.12c0.65-0.09,1.12,0.6,0.79,1.17l-0.44,0.77
	c-0.13,0.23-0.14,0.5-0.02,0.74l0.39,0.8C317.1,125.32,316.59,125.98,315.95,125.85z"/>
<circle class="st0" cx="662.85" cy="12.11" r="11.62"/>
<circle class="st0" cx="1001.98" cy="17.87" r="9.68"/>
<ellipse class="st0" cx="1476.06" cy="35.44" rx="11.55" ry="11.51"/>
<path class="st1" d="M468.48,61.23l-3.66-2.24c-0.43-0.27-0.97-0.3-1.43-0.08l-3.88,1.84c-1.16,0.55-2.43-0.51-2.14-1.79l0.95-4.28
	c0.11-0.51-0.02-1.04-0.37-1.42l-2.89-3.22c-0.86-0.96-0.27-2.53,1-2.65l4.25-0.4c0.5-0.05,0.96-0.35,1.2-0.8l2.1-3.83
	c0.63-1.15,2.26-1.06,2.76,0.15l1.67,4.03c0.2,0.48,0.61,0.83,1.11,0.93l4.18,0.86c1.25,0.26,1.67,1.88,0.71,2.74l-3.22,2.9
	c-0.38,0.34-0.58,0.86-0.52,1.38l0.49,4.36C470.95,60.99,469.58,61.9,468.48,61.23z"/>
<ellipse class="st0" cx="487.52" cy="-16.46" rx="60.56" ry="57.53"/>
<ellipse class="st0" cx="577.18" cy="-8.67" rx="52.82" ry="52.67"/>
<ellipse class="st0" cx="651.21" cy="-10.19" rx="48.21" ry="48.19"/>
<ellipse class="st0" cx="730.61" cy="-11.36" rx="46.39" ry="46.36"/>
<ellipse class="st0" cx="767.43" cy="15.87" rx="8.57" ry="8.56"/>
<ellipse class="st0" cx="833.79" cy="-11.04" rx="24.21" ry="24.04"/>
<circle class="st0" cx="809" cy="-3.96" r="41.95"/>
<ellipse class="st0" cx="874.43" cy="-16.35" rx="51.63" ry="49.05"/>
<circle class="st0" cx="957.21" cy="-5.95" r="48.41"/>
<circle class="st0" cx="1015.94" cy="-18.12" r="36.14"/>
<ellipse class="st0" cx="1512.19" cy="-7.34" rx="57.99" ry="55.09"/>
<circle class="st0" cx="1421.58" cy="4.92" r="54.36"/>
<circle class="st0" cx="1355.62" cy="-5.73" r="40.59"/>
<circle class="st0" cx="1130.65" cy="-19.78" r="30.58"/>
<circle class="st0" cx="950.1" cy="-31.6" r="36.14"/>
<ellipse class="st0" cx="1033.52" cy="-14.38" rx="51.63" ry="49.05"/>
<circle class="st0" cx="1114.19" cy="-10.83" r="48.41"/>
<circle class="st0" cx="1075.04" cy="-13.82" r="39.64"/>
<circle class="st0" cx="1182.75" cy="5.16" r="40.59"/>
<ellipse class="st0" cx="1236.89" cy="2.55" rx="30.58" ry="30.27"/>
<ellipse class="st0" cx="406.3" cy="35.7" rx="11.12" ry="10.56"/>
<path class="st1" d="M731.27,57.45l-2.02,2.96C729,60.78,728.6,61,728.16,61l-3.59,0.02c-1.11,0-1.73,1.28-1.05,2.15l2.19,2.84
	c0.27,0.35,0.35,0.8,0.22,1.22l-1.09,3.42c-0.34,1.05,0.68,2.03,1.72,1.66l3.38-1.21c0.41-0.15,0.87-0.08,1.23,0.17l2.91,2.09
	c0.9,0.65,2.15-0.02,2.11-1.12l-0.11-3.58c-0.01-0.44,0.19-0.86,0.54-1.12l2.89-2.12c0.89-0.65,0.65-2.05-0.41-2.36l-3.44-1.01
	c-0.42-0.12-0.76-0.45-0.89-0.86l-1.12-3.41C733.29,56.74,731.89,56.54,731.27,57.45z"/>
<path class="st1" d="M1348.2,110.1l-1.65,2.43c-0.2,0.3-0.54,0.48-0.9,0.48l-2.94,0.01c-0.9,0-1.41,1.04-0.86,1.76l1.8,2.32
	c0.22,0.28,0.29,0.66,0.18,1l-0.89,2.8c-0.28,0.86,0.56,1.67,1.41,1.36l2.76-0.99c0.34-0.12,0.71-0.07,1.01,0.14l2.38,1.71
	c0.73,0.53,1.76-0.01,1.73-0.92l-0.09-2.93c-0.01-0.36,0.16-0.7,0.45-0.91l2.37-1.74c0.73-0.54,0.53-1.67-0.34-1.93l-2.82-0.82
	c-0.34-0.1-0.62-0.36-0.73-0.71l-0.92-2.79C1349.85,109.51,1348.71,109.35,1348.2,110.1z"/>
<path class="st1" d="M510.85,134.82l-3.82,0.79c-0.54,0.11-1.09-0.05-1.49-0.43l-2.81-2.7c-1-0.96-2.65-0.35-2.81,1.02l-0.43,3.87
	c-0.06,0.54-0.39,1.02-0.87,1.28l-3.43,1.84c-1.22,0.65-1.16,2.42,0.1,2.98l3.55,1.61c0.5,0.23,0.86,0.68,0.95,1.22l0.69,3.83
	c0.24,1.36,1.94,1.85,2.87,0.83l2.62-2.88c0.37-0.4,0.91-0.6,1.46-0.53l3.86,0.53c1.37,0.19,2.36-1.27,1.67-2.47l-1.93-3.39
	c-0.27-0.48-0.29-1.06-0.05-1.55l1.7-3.51C513.28,135.94,512.2,134.54,510.85,134.82z"/>
<path class="st1" d="M429.98,72.78l-3.29,1.96c-0.39,0.23-0.87,0.26-1.28,0.07l-3.48-1.6c-1.04-0.48-2.18,0.45-1.92,1.56l0.85,3.74
	c0.1,0.44-0.02,0.91-0.33,1.24l-2.59,2.82c-0.78,0.84-0.25,2.21,0.89,2.31l3.82,0.35c0.45,0.04,0.86,0.3,1.08,0.7l1.88,3.34
	c0.56,1,2.02,0.92,2.48-0.13l1.51-3.52c0.18-0.42,0.55-0.72,1-0.81l3.76-0.75c1.12-0.23,1.5-1.64,0.64-2.4l-2.88-2.52
	c-0.34-0.3-0.52-0.75-0.46-1.2l0.44-3.8C432.19,72.99,430.96,72.19,429.98,72.78z"/>
<path class="st1" d="M572.84,79.56l-3.29,1.96c-0.39,0.23-0.87,0.26-1.28,0.07l-3.48-1.6c-1.04-0.48-2.18,0.45-1.92,1.56l0.85,3.74
	c0.1,0.44-0.02,0.91-0.33,1.24l-2.59,2.82c-0.78,0.84-0.25,2.21,0.89,2.31l3.82,0.35c0.45,0.04,0.86,0.3,1.08,0.7l1.88,3.34
	c0.56,1,2.02,0.92,2.48-0.13l1.51-3.52c0.18-0.42,0.55-0.72,1-0.81l3.76-0.75c1.12-0.23,1.5-1.64,0.64-2.4l-2.88-2.52
	c-0.34-0.3-0.52-0.75-0.46-1.2l0.44-3.8C575.06,79.77,573.83,78.97,572.84,79.56z"/>
<path class="st1" d="M800.26,29.22l-2.83,4.15c-0.35,0.51-0.92,0.81-1.54,0.82l-5.02,0.02c-1.55,0.01-2.42,1.79-1.47,3.01l3.07,3.97
	c0.38,0.49,0.49,1.13,0.3,1.71l-1.53,4.78c-0.47,1.47,0.95,2.85,2.41,2.33l4.73-1.69c0.58-0.21,1.22-0.12,1.72,0.24l4.08,2.93
	c1.26,0.9,3-0.02,2.96-1.57l-0.15-5.02c-0.02-0.61,0.27-1.2,0.76-1.56l4.05-2.97c1.25-0.92,0.91-2.87-0.58-3.3l-4.82-1.41
	c-0.59-0.17-1.06-0.62-1.25-1.21l-1.57-4.77C803.09,28.21,801.13,27.94,800.26,29.22z"/>
<path class="st1" d="M682.18,57.14l-2.08-4.73c-0.25-0.56-0.75-0.97-1.36-1.08l-5.07-0.97c-1.52-0.29-2.04-2.19-0.89-3.22l3.85-3.44
	c0.46-0.41,0.69-1.02,0.61-1.62l-0.65-5.12c-0.19-1.53,1.45-2.62,2.79-1.84l4.46,2.6c0.53,0.31,1.18,0.34,1.73,0.08l4.67-2.2
	c1.4-0.66,2.94,0.57,2.62,2.08l-1.1,5.05c-0.13,0.6,0.04,1.22,0.46,1.67l3.54,3.76c1.06,1.13,0.36,2.98-1.17,3.13l-5.14,0.52
	c-0.61,0.06-1.15,0.42-1.45,0.96l-2.49,4.53C684.77,58.65,682.8,58.56,682.18,57.14z"/>
<path class="st1" d="M849.97,122.51l-1.65-2.43c-0.2-0.3-0.54-0.48-0.9-0.48l-2.94-0.01c-0.9,0-1.41-1.04-0.86-1.76l1.8-2.32
	c0.22-0.28,0.29-0.66,0.18-1l-0.89-2.8c-0.28-0.86,0.56-1.67,1.41-1.36l2.76,0.99c0.34,0.12,0.71,0.07,1.01-0.14l2.38-1.71
	c0.73-0.53,1.76,0.01,1.73,0.92l-0.09,2.93c-0.01,0.36,0.16,0.7,0.45,0.91l2.37,1.74c0.73,0.54,0.53,1.67-0.34,1.93l-2.82,0.82
	c-0.34,0.1-0.62,0.36-0.73,0.71l-0.92,2.79C851.63,123.1,850.48,123.26,849.97,122.51z"/>
<path class="st1" d="M916.09,39.59l-0.87-0.18c-0.25-0.05-0.52,0.02-0.71,0.2l-0.64,0.61c-0.47,0.45-1.26,0.17-1.33-0.48l-0.1-0.88
	c-0.03-0.26-0.18-0.49-0.41-0.61l-0.78-0.42c-0.58-0.31-0.55-1.15,0.05-1.42l0.81-0.37c0.24-0.11,0.41-0.32,0.45-0.58l0.16-0.87
	c0.12-0.64,0.92-0.88,1.36-0.39l0.6,0.65c0.18,0.19,0.43,0.29,0.69,0.25l0.88-0.12c0.65-0.09,1.12,0.6,0.79,1.17l-0.44,0.77
	c-0.13,0.23-0.14,0.5-0.02,0.74l0.39,0.8C917.25,39.06,916.74,39.72,916.09,39.59z"/>
<path class="st1" d="M1003.29,70.06l-0.87-0.18c-0.25-0.05-0.52,0.02-0.71,0.2l-0.64,0.61c-0.47,0.45-1.26,0.17-1.33-0.48l-0.1-0.88
	c-0.03-0.26-0.18-0.49-0.41-0.61l-0.78-0.42c-0.58-0.31-0.55-1.15,0.05-1.42l0.81-0.37c0.24-0.11,0.41-0.32,0.45-0.58l0.16-0.87
	c0.12-0.64,0.92-0.88,1.36-0.39l0.6,0.65c0.18,0.19,0.43,0.29,0.69,0.25l0.88-0.12c0.65-0.09,1.12,0.6,0.79,1.17l-0.44,0.77
	c-0.13,0.23-0.14,0.5-0.02,0.74l0.39,0.8C1004.45,69.53,1003.93,70.2,1003.29,70.06z"/>
<path class="st1" d="M1024.09,134.9l-1.65-2.43c-0.2-0.3-0.54-0.48-0.9-0.48l-2.94-0.01c-0.9,0-1.41-1.04-0.86-1.76l1.8-2.32
	c0.22-0.28,0.29-0.66,0.18-1l-0.89-2.8c-0.28-0.86,0.56-1.67,1.41-1.36l2.76,0.99c0.34,0.12,0.71,0.07,1.01-0.14l2.38-1.71
	c0.73-0.53,1.76,0.01,1.73,0.92l-0.09,2.93c-0.01,0.36,0.16,0.7,0.45,0.91l2.37,1.74c0.73,0.54,0.53,1.67-0.34,1.93l-2.82,0.82
	c-0.34,0.1-0.62,0.36-0.73,0.71l-0.92,2.79C1025.74,135.49,1024.59,135.65,1024.09,134.9z"/>
<path class="st1" d="M1077.26,93.9l-1.65-2.43c-0.2-0.3-0.54-0.48-0.9-0.48l-2.94-0.01c-0.9,0-1.41-1.04-0.86-1.76l1.8-2.32
	c0.22-0.28,0.29-0.66,0.18-1l-0.89-2.8c-0.28-0.86,0.56-1.67,1.41-1.36l2.76,0.99c0.34,0.12,0.71,0.07,1.01-0.14l2.38-1.71
	c0.73-0.53,1.76,0.01,1.73,0.92l-0.09,2.93c-0.01,0.36,0.16,0.7,0.45,0.91l2.37,1.74c0.73,0.54,0.53,1.67-0.34,1.93l-2.82,0.82
	c-0.34,0.1-0.62,0.36-0.73,0.71l-0.92,2.79C1078.92,94.49,1077.77,94.65,1077.26,93.9z"/>
<path class="st1" d="M1226.72,111.44l-3.29,1.96c-0.39,0.23-0.87,0.26-1.28,0.07l-3.48-1.6c-1.04-0.48-2.18,0.45-1.92,1.56
	l0.85,3.74c0.1,0.44-0.02,0.91-0.33,1.24l-2.59,2.82c-0.78,0.84-0.25,2.21,0.89,2.31l3.81,0.35c0.45,0.04,0.86,0.3,1.08,0.7
	l1.88,3.34c0.56,1,2.02,0.92,2.48-0.13l1.51-3.52c0.18-0.42,0.55-0.72,1-0.81l3.76-0.75c1.12-0.23,1.5-1.64,0.64-2.4l-2.88-2.52
	c-0.34-0.3-0.52-0.75-0.46-1.2l0.44-3.8C1228.93,111.65,1227.7,110.85,1226.72,111.44z"/>
<path class="st0" d="M1575.04,26.8l-1.67,0.34c-0.49,0.1-1-0.05-1.36-0.39l-1.23-1.18c-0.91-0.87-2.42-0.32-2.56,0.93l-0.19,1.69
	c-0.06,0.5-0.35,0.93-0.79,1.17l-1.5,0.8c-1.11,0.59-1.06,2.2,0.09,2.72l1.55,0.7c0.46,0.21,0.78,0.62,0.87,1.12l0.3,1.68
	c0.22,1.24,1.77,1.68,2.62,0.75l1.15-1.26c0.34-0.37,0.83-0.55,1.33-0.48l1.69,0.23c1.25,0.17,2.15-1.16,1.53-2.26l-0.84-1.48
	c-0.25-0.43-0.26-0.96-0.05-1.41l0.74-1.53C1577.26,27.82,1576.27,26.55,1575.04,26.8z"/>
<path class="st1" d="M1187.48,69.04L1184.2,71c-0.39,0.23-0.87,0.26-1.28,0.07l-3.48-1.6c-1.04-0.48-2.18,0.45-1.92,1.56l0.85,3.74
	c0.1,0.44-0.02,0.91-0.33,1.24l-2.59,2.82c-0.78,0.84-0.25,2.21,0.89,2.31l3.81,0.35c0.45,0.04,0.86,0.3,1.08,0.7l1.88,3.34
	c0.56,1,2.02,0.92,2.47-0.13l1.51-3.52c0.18-0.42,0.55-0.72,1-0.81l3.75-0.75c1.12-0.23,1.5-1.64,0.64-2.4l-2.88-2.52
	c-0.34-0.3-0.52-0.75-0.46-1.2l0.44-3.8C1189.69,69.25,1188.46,68.45,1187.48,69.04z"/>
<path class="st1" d="M657.62,155.63l-5.01-2.99c-0.6-0.36-1.33-0.39-1.96-0.11l-5.31,2.43c-1.59,0.73-3.32-0.68-2.93-2.38l1.3-5.69
	c0.15-0.68-0.03-1.38-0.5-1.89l-3.95-4.29c-1.18-1.28-0.38-3.37,1.36-3.52l5.81-0.53c0.69-0.06,1.31-0.46,1.65-1.07l2.86-5.09
	c0.86-1.52,3.09-1.4,3.77,0.2l2.3,5.37c0.27,0.64,0.84,1.1,1.52,1.24l5.72,1.15c1.71,0.34,2.29,2.5,0.97,3.65l-4.39,3.84
	c-0.52,0.46-0.79,1.14-0.71,1.83l0.68,5.8C661,155.31,659.12,156.53,657.62,155.63z"/>
<path class="st1" d="M316.62,46.63l-1.74-0.36c-0.51-0.11-1.04,0.05-1.42,0.41l-1.28,1.23c-0.95,0.91-2.53,0.34-2.67-0.97l-0.2-1.77
	c-0.06-0.52-0.37-0.98-0.83-1.22l-1.57-0.84c-1.16-0.62-1.1-2.3,0.1-2.84l1.62-0.73c0.48-0.22,0.81-0.65,0.91-1.16l0.31-1.75
	c0.23-1.29,1.85-1.76,2.73-0.79l1.2,1.31c0.35,0.39,0.87,0.57,1.39,0.5l1.76-0.24c1.3-0.18,2.24,1.21,1.59,2.36l-0.88,1.55
	c-0.26,0.45-0.28,1.01-0.05,1.48l0.77,1.6C318.94,45.57,317.9,46.89,316.62,46.63z"/>
<path class="st1" d="M1260.29,12.32l-4.99,11.36c-0.41,0.93-1.26,1.61-2.26,1.8l-12.19,2.32c-2.53,0.48-3.4,3.65-1.48,5.36
	l9.26,8.26c0.76,0.68,1.14,1.69,1.01,2.7l-1.56,12.31c-0.32,2.55,2.42,4.36,4.64,3.07l10.72-6.25c0.88-0.51,1.96-0.56,2.88-0.13
	l11.23,5.28c2.33,1.09,4.9-0.95,4.35-3.47l-2.63-12.12c-0.22-1,0.07-2.04,0.77-2.78l8.49-9.04c1.76-1.87,0.61-4.95-1.95-5.21
	l-12.34-1.24c-1.02-0.1-1.92-0.7-2.41-1.59l-5.98-10.87C1264.61,9.82,1261.33,9.97,1260.29,12.32z"/>
<circle class="st0" cx="1568.9" cy="-14.49" r="40.59"/>
<ellipse class="st0" cx="1526.9" cy="6.02" rx="57.99" ry="55.09"/>
<path class="st1" d="M1590.34,34.06l6.32-3.77c0.75-0.45,1.67-0.5,2.47-0.13l6.69,3.07c2,0.92,4.19-0.86,3.7-3l-1.63-7.18
	c-0.19-0.85,0.04-1.75,0.64-2.39l4.99-5.42c1.49-1.62,0.48-4.25-1.71-4.45l-7.33-0.66c-0.87-0.08-1.65-0.58-2.08-1.34l-3.61-6.42
	c-1.08-1.92-3.89-1.77-4.76,0.26l-2.9,6.77c-0.34,0.8-1.06,1.39-1.92,1.56l-7.22,1.45c-2.16,0.43-2.88,3.15-1.23,4.6l5.54,4.85
	c0.66,0.58,0.99,1.44,0.89,2.31l-0.85,7.31C1586.08,33.66,1588.45,35.19,1590.34,34.06z"/>
<circle class="st0" cx="183.76" cy="-3.75" r="56.77"/>
<circle class="st0" cx="114.88" cy="-12.07" r="42.39"/>
<path class="st1" d="M136.54,48.38l-3.09-1.84c-0.37-0.22-0.82-0.24-1.21-0.07l-3.27,1.5c-0.98,0.45-2.04-0.42-1.81-1.47l0.8-3.5
	c0.09-0.42-0.02-0.85-0.31-1.17l-2.43-2.64c-0.73-0.79-0.23-2.07,0.84-2.17l3.58-0.32c0.43-0.04,0.8-0.28,1.01-0.66l1.76-3.13
	c0.53-0.94,1.9-0.86,2.32,0.13l1.41,3.3c0.17,0.39,0.52,0.68,0.94,0.76l3.52,0.71c1.05,0.21,1.41,1.54,0.6,2.25l-2.71,2.37
	c-0.32,0.28-0.48,0.7-0.43,1.13l0.42,3.57C138.62,48.19,137.46,48.93,136.54,48.38z"/>
<path class="st1" d="M279.69,78.55l-3.19-1.96c-0.38-0.23-0.85-0.26-1.25-0.07l-3.39,1.6c-1.01,0.48-2.12-0.44-1.87-1.56l0.83-3.74
	c0.1-0.44-0.02-0.91-0.32-1.24l-2.52-2.81c-0.75-0.84-0.24-2.21,0.87-2.31l3.71-0.35c0.44-0.04,0.83-0.3,1.05-0.7l1.83-3.34
	c0.55-1,1.97-0.92,2.41,0.13l1.46,3.52c0.17,0.42,0.54,0.72,0.97,0.81l3.65,0.75c1.09,0.22,1.46,1.64,0.62,2.39l-2.81,2.53
	c-0.33,0.3-0.5,0.75-0.45,1.2l0.42,3.8C281.84,78.34,280.64,79.14,279.69,78.55z"/>
<path class="st1" d="M955.28,54.1l-1.65,2.43c-0.2,0.3-0.54,0.48-0.9,0.48l-2.94,0.01c-0.9,0-1.41,1.04-0.86,1.76l1.8,2.32
	c0.22,0.28,0.29,0.66,0.18,1l-0.89,2.8c-0.28,0.86,0.56,1.67,1.41,1.36l2.76-0.99c0.34-0.12,0.71-0.07,1.01,0.14l2.38,1.71
	c0.73,0.53,1.76-0.01,1.73-0.92l-0.09-2.93c-0.01-0.36,0.16-0.7,0.45-0.91l2.37-1.74c0.73-0.54,0.53-1.67-0.34-1.93l-2.82-0.82
	c-0.34-0.1-0.62-0.36-0.73-0.71l-0.92-2.79C956.94,53.51,955.79,53.35,955.28,54.1z"/>
<path class="st1" d="M106.34,94.47l-3.29,1.96c-0.39,0.23-0.87,0.26-1.28,0.07l-3.48-1.6c-1.04-0.48-2.18,0.45-1.92,1.56l0.85,3.74
	c0.1,0.44-0.02,0.91-0.33,1.24l-2.59,2.82c-0.78,0.84-0.25,2.21,0.89,2.31l3.82,0.35c0.45,0.04,0.86,0.3,1.08,0.7l1.88,3.34
	c0.56,1,2.02,0.92,2.48-0.13l1.51-3.52c0.18-0.42,0.55-0.72,1-0.81l3.76-0.75c1.12-0.23,1.5-1.64,0.64-2.4l-2.88-2.52
	c-0.34-0.3-0.52-0.75-0.46-1.2l0.44-3.8C108.56,94.68,107.33,93.89,106.34,94.47z"/>
<path class="st1" d="M196.77,95.39l-2.22-5.04c-0.26-0.6-0.8-1.03-1.45-1.15l-5.41-1.03c-1.62-0.31-2.18-2.34-0.95-3.43l4.11-3.67
	c0.49-0.44,0.73-1.08,0.65-1.73l-0.69-5.46c-0.21-1.63,1.55-2.8,2.97-1.97l4.76,2.77c0.56,0.33,1.26,0.36,1.85,0.08l4.98-2.34
	c1.49-0.7,3.14,0.61,2.79,2.22l-1.17,5.38c-0.14,0.64,0.05,1.31,0.49,1.78l3.77,4.01c1.13,1.2,0.39,3.17-1.25,3.34l-5.48,0.55
	c-0.65,0.07-1.23,0.45-1.54,1.02l-2.65,4.82C199.54,96.99,197.43,96.9,196.77,95.39z"/>
<path class="st1" d="M388.47,126.9l-1.65-2.43c-0.2-0.3-0.54-0.48-0.9-0.48l-2.94-0.01c-0.9,0-1.41-1.04-0.86-1.76l1.8-2.32
	c0.22-0.28,0.29-0.66,0.18-1l-0.89-2.8c-0.28-0.86,0.56-1.67,1.41-1.36l2.76,0.99c0.34,0.12,0.71,0.07,1.01-0.14l2.38-1.71
	c0.73-0.53,1.76,0.01,1.73,0.92l-0.09,2.93c-0.01,0.36,0.16,0.7,0.45,0.91l2.37,1.74c0.73,0.54,0.53,1.67-0.34,1.93l-2.82,0.82
	c-0.34,0.1-0.62,0.36-0.73,0.71l-0.92,2.79C390.13,127.49,388.98,127.65,388.47,126.9z"/>
<path class="st1" d="M1482.07,82.31l0.87-0.18c0.25-0.05,0.52,0.02,0.71,0.2l0.64,0.61c0.47,0.45,1.26,0.17,1.33-0.48l0.1-0.88
	c0.03-0.26,0.18-0.49,0.41-0.61l0.78-0.42c0.58-0.31,0.55-1.15-0.05-1.42l-0.81-0.37c-0.24-0.11-0.41-0.32-0.45-0.58l-0.16-0.87
	c-0.12-0.64-0.92-0.88-1.36-0.39l-0.6,0.65c-0.18,0.19-0.43,0.29-0.69,0.25l-0.88-0.12c-0.65-0.09-1.12,0.6-0.79,1.17l0.44,0.77
	c0.13,0.23,0.14,0.5,0.02,0.74l-0.39,0.8C1480.91,81.78,1481.42,82.45,1482.07,82.31z"/>
<path class="st1" d="M1454.04,96.1l1.65,2.43c0.2,0.3,0.54,0.48,0.9,0.48l2.94,0.01c0.9,0,1.41,1.04,0.86,1.76l-1.8,2.32
	c-0.22,0.28-0.29,0.66-0.18,1l0.89,2.8c0.28,0.86-0.56,1.67-1.41,1.36l-2.76-0.99c-0.34-0.12-0.71-0.07-1.01,0.14l-2.38,1.71
	c-0.73,0.53-1.76-0.01-1.73-0.92l0.09-2.93c0.01-0.36-0.16-0.7-0.45-0.91l-2.37-1.74c-0.73-0.54-0.53-1.67,0.34-1.93l2.82-0.82
	c0.34-0.1,0.62-0.36,0.73-0.71l0.92-2.79C1452.38,95.51,1453.53,95.35,1454.04,96.1z"/>
<path class="st1" d="M1365.68,66.67l3.82,0.79c0.54,0.11,1.09-0.05,1.49-0.43l2.81-2.7c1-0.96,2.65-0.35,2.81,1.02l0.43,3.87
	c0.06,0.54,0.39,1.02,0.87,1.28l3.43,1.84c1.22,0.65,1.16,2.42-0.1,2.98l-3.55,1.61c-0.5,0.23-0.86,0.68-0.95,1.22l-0.69,3.83
	c-0.24,1.36-1.94,1.85-2.87,0.83l-2.62-2.88c-0.37-0.4-0.91-0.6-1.46-0.53l-3.86,0.53c-1.37,0.19-2.36-1.27-1.67-2.47l1.93-3.39
	c0.27-0.48,0.29-1.06,0.05-1.55l-1.7-3.51C1363.25,67.78,1364.33,66.39,1365.68,66.67z"/>
<path class="st1" d="M1519.84,79.57l3.82,0.79c0.54,0.11,1.09-0.05,1.49-0.43l2.81-2.7c1-0.96,2.65-0.35,2.81,1.02l0.43,3.87
	c0.06,0.54,0.39,1.02,0.87,1.28l3.43,1.84c1.22,0.65,1.16,2.42-0.1,2.98l-3.55,1.61c-0.5,0.23-0.86,0.68-0.95,1.22l-0.69,3.83
	c-0.24,1.36-1.94,1.85-2.87,0.83l-2.62-2.88c-0.37-0.4-0.91-0.6-1.46-0.53l-3.86,0.53c-1.37,0.19-2.36-1.27-1.67-2.47l1.93-3.39
	c0.27-0.48,0.29-1.06,0.05-1.55l-1.7-3.51C1517.4,80.69,1518.49,79.3,1519.84,79.57z"/>
<path class="st1" d="M662.43,103.9l-1.65-2.43c-0.2-0.3-0.54-0.48-0.9-0.48l-2.94-0.01c-0.9,0-1.41-1.04-0.86-1.76l1.8-2.32
	c0.22-0.28,0.29-0.66,0.18-1l-0.89-2.8c-0.28-0.86,0.56-1.67,1.41-1.36l2.76,0.99c0.34,0.12,0.71,0.07,1.01-0.14l2.38-1.71
	c0.73-0.53,1.76,0.01,1.73,0.92l-0.09,2.93c-0.01,0.36,0.16,0.7,0.45,0.91l2.37,1.74c0.73,0.54,0.53,1.67-0.34,1.93l-2.82,0.82
	c-0.34,0.1-0.62,0.36-0.73,0.71l-0.92,2.79C664.08,104.49,662.93,104.65,662.43,103.9z"/>
<path class="st1" d="M881.87,72.29l-3.29-1.96c-0.39-0.23-0.87-0.26-1.28-0.07l-3.48,1.6c-1.04,0.48-2.18-0.45-1.92-1.56l0.85-3.74
	c0.1-0.44-0.02-0.91-0.33-1.24l-2.59-2.82c-0.78-0.84-0.25-2.21,0.89-2.31l3.82-0.35c0.45-0.04,0.86-0.3,1.08-0.7l1.88-3.34
	c0.56-1,2.02-0.92,2.48,0.13l1.51,3.52c0.18,0.42,0.55,0.72,1,0.81l3.76,0.75c1.12,0.23,1.5,1.64,0.64,2.4l-2.88,2.52
	c-0.34,0.3-0.52,0.75-0.46,1.2l0.44,3.8C884.08,72.09,882.85,72.88,881.87,72.29z"/>
<path class="st1" d="M814.28,82.98l-0.87-0.18c-0.25-0.05-0.52,0.02-0.71,0.2l-0.64,0.61c-0.47,0.45-1.26,0.17-1.33-0.48l-0.1-0.88
	c-0.03-0.26-0.18-0.49-0.41-0.61l-0.78-0.42c-0.58-0.31-0.55-1.15,0.05-1.42l0.81-0.37c0.24-0.11,0.41-0.32,0.45-0.58l0.16-0.87
	c0.12-0.64,0.92-0.88,1.36-0.39l0.6,0.65c0.18,0.19,0.43,0.29,0.69,0.25l0.88-0.12c0.65-0.09,1.12,0.6,0.79,1.17l-0.44,0.77
	c-0.13,0.23-0.14,0.5-0.02,0.74l0.39,0.8C815.44,82.45,814.92,83.11,814.28,82.98z"/>
<path class="st1" d="M944.66,106.35l3.29,1.96c0.39,0.23,0.87,0.26,1.28,0.07l3.48-1.6c1.04-0.48,2.18,0.45,1.92,1.56l-0.85,3.74
	c-0.1,0.44,0.02,0.91,0.33,1.24l2.59,2.82c0.78,0.84,0.25,2.21-0.89,2.31l-3.82,0.35c-0.45,0.04-0.86,0.3-1.08,0.7l-1.88,3.34
	c-0.56,1-2.02,0.92-2.48-0.13l-1.51-3.52c-0.18-0.42-0.55-0.72-1-0.81l-3.76-0.75c-1.12-0.23-1.5-1.64-0.64-2.4l2.88-2.52
	c0.34-0.3,0.52-0.75,0.46-1.2l-0.44-3.8C942.45,106.56,943.68,105.77,944.66,106.35z"/>
<path class="st1" d="M1126.47,61.18l3.35-7.61c0.28-0.63,0.84-1.08,1.51-1.2l8.16-1.56c1.69-0.32,2.28-2.44,0.99-3.59l-6.2-5.53
	c-0.51-0.46-0.76-1.13-0.68-1.81l1.04-8.24c0.22-1.71-1.62-2.92-3.11-2.06l-7.18,4.19c-0.59,0.34-1.31,0.38-1.93,0.09l-7.52-3.54
	c-1.56-0.73-3.28,0.64-2.92,2.32l1.76,8.12c0.15,0.67-0.05,1.37-0.52,1.86l-5.69,6.06c-1.18,1.26-0.41,3.32,1.31,3.49l8.27,0.83
	c0.68,0.07,1.28,0.47,1.61,1.07l4,7.28C1123.58,62.85,1125.78,62.75,1126.47,61.18z"/>
<circle class="st0" cx="16.99" cy="-3.77" r="54.36"/>
<ellipse class="st0" cx="116.85" cy="-21.16" rx="57.99" ry="55.09"/>
<circle class="st0" cx="424.42" cy="-2.5" r="40.59"/>
<ellipse class="st0" cx="70.67" cy="15.38" rx="10.65" ry="10.12"/>
<path class="st1" d="M1111.51,146.34l-1.67-0.34c-0.49-0.1-1,0.05-1.36,0.39l-1.23,1.18c-0.91,0.87-2.42,0.32-2.56-0.93l-0.19-1.69
	c-0.06-0.5-0.35-0.93-0.79-1.17l-1.5-0.8c-1.11-0.59-1.06-2.2,0.09-2.72l1.55-0.7c0.46-0.21,0.78-0.62,0.87-1.12l0.3-1.68
	c0.22-1.24,1.77-1.68,2.62-0.75l1.15,1.26c0.34,0.37,0.83,0.55,1.33,0.48l1.69-0.23c1.25-0.17,2.15,1.16,1.53,2.26l-0.84,1.48
	c-0.25,0.43-0.26,0.96-0.05,1.41l0.74,1.53C1113.73,145.32,1112.74,146.59,1111.51,146.34z"/>
<ellipse class="st0" cx="694.1" cy="20.75" rx="8.57" ry="8.56"/>
<ellipse class="st0" cx="532.57" cy="30.93" rx="11.12" ry="10.56"/>
<circle class="st0" cx="913.64" cy="13.3" r="9.68"/>
<circle class="st0" cx="1146.63" cy="29.02" r="9.68"/>
<circle class="st0" cx="1213.68" cy="28.54" r="9.68"/>
<path class="st1" d="M265.54,144.22l-5.01-2.99c-0.6-0.36-1.33-0.39-1.96-0.11l-5.31,2.43c-1.59,0.73-3.32-0.68-2.93-2.38l1.3-5.69
	c0.15-0.68-0.03-1.38-0.5-1.89l-3.95-4.29c-1.18-1.28-0.38-3.37,1.36-3.52l5.81-0.53c0.69-0.06,1.31-0.46,1.65-1.07l2.86-5.09
	c0.86-1.52,3.09-1.4,3.77,0.2l2.3,5.37c0.27,0.64,0.84,1.1,1.52,1.24l5.72,1.15c1.71,0.34,2.29,2.5,0.97,3.65l-4.39,3.84
	c-0.52,0.46-0.79,1.14-0.71,1.83l0.68,5.8C268.91,143.9,267.03,145.12,265.54,144.22z"/>
<path class="st1" d="M779.88,131.36l-5.01-2.99c-0.6-0.36-1.33-0.39-1.96-0.11l-5.31,2.43c-1.59,0.73-3.32-0.68-2.93-2.38l1.3-5.69
	c0.15-0.68-0.03-1.38-0.5-1.89l-3.95-4.29c-1.18-1.28-0.38-3.37,1.36-3.52l5.81-0.53c0.69-0.06,1.31-0.46,1.65-1.07l2.86-5.09
	c0.86-1.52,3.09-1.4,3.77,0.2l2.3,5.37c0.27,0.64,0.84,1.1,1.52,1.24l5.72,1.15c1.71,0.34,2.29,2.5,0.97,3.65l-4.39,3.84
	c-0.52,0.46-0.79,1.14-0.71,1.83l0.67,5.8C783.25,131.04,781.38,132.26,779.88,131.36z"/>
<path class="st1" d="M1408.88,141.36l-5.01-2.99c-0.6-0.36-1.33-0.39-1.96-0.11l-5.31,2.43c-1.59,0.73-3.32-0.68-2.93-2.38l1.3-5.69
	c0.15-0.68-0.03-1.38-0.5-1.89l-3.95-4.29c-1.18-1.28-0.38-3.37,1.36-3.52l5.81-0.53c0.69-0.06,1.31-0.46,1.65-1.07l2.86-5.09
	c0.86-1.52,3.09-1.4,3.77,0.2l2.3,5.37c0.27,0.64,0.84,1.1,1.52,1.24l5.72,1.15c1.71,0.34,2.29,2.5,0.97,3.65l-4.39,3.84
	c-0.52,0.46-0.79,1.14-0.71,1.83l0.68,5.8C1412.25,141.04,1410.38,142.26,1408.88,141.36z"/>
<path class="st1" d="M1152.88,127.36l-5.01-2.99c-0.6-0.36-1.33-0.39-1.96-0.11l-5.31,2.43c-1.59,0.73-3.32-0.68-2.93-2.38l1.3-5.69
	c0.15-0.68-0.03-1.38-0.5-1.89l-3.95-4.29c-1.18-1.28-0.38-3.37,1.36-3.52l5.81-0.53c0.69-0.06,1.31-0.46,1.65-1.07l2.86-5.09
	c0.86-1.52,3.09-1.4,3.77,0.2l2.3,5.37c0.27,0.64,0.84,1.1,1.52,1.24l5.72,1.15c1.71,0.34,2.29,2.5,0.97,3.65l-4.39,3.84
	c-0.52,0.46-0.79,1.14-0.71,1.83l0.68,5.8C1156.25,127.04,1154.38,128.26,1152.88,127.36z"/>
<path class="st1" d="M1027.88,59.36l-5.01-2.99c-0.6-0.36-1.33-0.39-1.96-0.11l-5.31,2.43c-1.59,0.73-3.32-0.68-2.93-2.38l1.3-5.69
	c0.15-0.68-0.03-1.38-0.5-1.89l-3.95-4.29c-1.18-1.28-0.38-3.37,1.36-3.52l5.81-0.53c0.69-0.06,1.31-0.46,1.65-1.07l2.86-5.09
	c0.86-1.52,3.09-1.4,3.77,0.2l2.3,5.37c0.27,0.64,0.84,1.1,1.52,1.24l5.72,1.15c1.71,0.34,2.29,2.5,0.97,3.65l-4.39,3.84
	c-0.52,0.46-0.79,1.14-0.71,1.83l0.68,5.8C1031.25,59.04,1029.38,60.26,1027.88,59.36z"/>
<path class="st1" d="M511.82,100.38l-5.01-2.99c-0.6-0.36-1.33-0.39-1.96-0.11l-5.31,2.43c-1.59,0.73-3.32-0.68-2.93-2.38l1.3-5.69
	c0.15-0.68-0.03-1.38-0.5-1.89l-3.95-4.29c-1.18-1.28-0.38-3.37,1.36-3.52l5.81-0.53c0.69-0.06,1.31-0.46,1.65-1.07l2.86-5.09
	c0.86-1.52,3.09-1.4,3.77,0.2l2.3,5.37c0.27,0.64,0.84,1.1,1.52,1.24l5.72,1.15c1.71,0.34,2.29,2.5,0.97,3.65l-4.39,3.84
	c-0.52,0.46-0.79,1.14-0.71,1.83l0.68,5.8C515.2,100.06,513.32,101.27,511.82,100.38z"/>
<path class="st1" d="M368.3,82.54l-5.01-2.99c-0.6-0.36-1.33-0.39-1.96-0.11l-5.31,2.43c-1.59,0.73-3.32-0.68-2.93-2.38l1.3-5.69
	c0.15-0.68-0.03-1.38-0.5-1.89l-3.95-4.29c-1.18-1.28-0.38-3.37,1.36-3.52l5.81-0.53c0.69-0.06,1.31-0.46,1.65-1.07l2.86-5.09
	c0.86-1.52,3.09-1.4,3.77,0.2l2.3,5.37c0.27,0.64,0.84,1.1,1.52,1.24l5.72,1.15c1.71,0.34,2.29,2.5,0.97,3.65l-4.39,3.84
	c-0.52,0.46-0.79,1.14-0.71,1.83l0.68,5.8C371.67,82.22,369.8,83.44,368.3,82.54z"/>
<path class="st1" d="M147.3,160.54l-5.01-2.99c-0.6-0.36-1.33-0.39-1.96-0.11l-5.31,2.43c-1.59,0.73-3.32-0.68-2.93-2.38l1.3-5.69
	c0.15-0.68-0.03-1.38-0.5-1.89l-3.95-4.29c-1.18-1.28-0.38-3.37,1.36-3.52l5.81-0.53c0.69-0.06,1.31-0.46,1.65-1.07l2.86-5.09
	c0.86-1.52,3.09-1.4,3.77,0.2l2.3,5.37c0.27,0.64,0.84,1.1,1.52,1.24l5.72,1.15c1.71,0.34,2.29,2.5,0.97,3.65l-4.39,3.84
	c-0.52,0.46-0.79,1.14-0.71,1.83l0.68,5.8C150.67,160.22,148.8,161.44,147.3,160.54z"/>
<path class="st1" d="M88.47,65.11l-3.29-1.96c-0.39-0.23-0.87-0.26-1.28-0.07l-3.48,1.6c-1.04,0.48-2.18-0.45-1.92-1.56l0.85-3.74
	c0.1-0.44-0.02-0.91-0.33-1.24l-2.59-2.82c-0.78-0.84-0.25-2.21,0.89-2.31l3.82-0.35c0.45-0.04,0.86-0.3,1.08-0.7l1.88-3.34
	c0.56-1,2.02-0.92,2.48,0.13l1.51,3.52c0.18,0.42,0.55,0.72,1,0.81l3.76,0.75c1.12,0.23,1.5,1.64,0.64,2.4l-2.88,2.52
	c-0.34,0.3-0.52,0.75-0.46,1.2l0.44,3.8C90.68,64.91,89.45,65.7,88.47,65.11z"/>
<path class="st1" d="M54.48,88.16l-0.87-0.18c-0.25-0.05-0.52,0.02-0.71,0.2l-0.64,0.61c-0.47,0.45-1.26,0.17-1.33-0.48l-0.1-0.88
	c-0.03-0.26-0.18-0.49-0.41-0.61l-0.78-0.42c-0.58-0.31-0.55-1.15,0.05-1.42l0.81-0.37c0.24-0.11,0.41-0.32,0.45-0.58l0.16-0.87
	c0.12-0.64,0.92-0.88,1.36-0.39l0.6,0.65c0.18,0.19,0.43,0.29,0.69,0.25l0.88-0.12c0.65-0.09,1.12,0.6,0.79,1.17l-0.44,0.77
	c-0.13,0.23-0.14,0.5-0.02,0.74l0.39,0.8C55.63,87.63,55.12,88.29,54.48,88.16z"/>
<path class="st1" d="M24.3,134.97l-2.22-5.04c-0.26-0.6-0.8-1.03-1.45-1.15l-5.41-1.03c-1.62-0.31-2.18-2.34-0.95-3.43l4.11-3.67
	c0.49-0.44,0.73-1.08,0.65-1.73l-0.69-5.46c-0.21-1.63,1.55-2.8,2.97-1.97l4.76,2.77c0.56,0.33,1.26,0.36,1.85,0.08L32.9,112
	c1.49-0.7,3.14,0.61,2.79,2.22l-1.17,5.38c-0.14,0.64,0.05,1.31,0.49,1.78l3.77,4.01c1.13,1.2,0.39,3.17-1.25,3.34l-5.48,0.55
	c-0.65,0.07-1.23,0.45-1.54,1.02l-2.65,4.82C27.07,136.57,24.97,136.47,24.3,134.97z"/>
<path class="st1" d="M600.29,143.9l-0.87-0.18c-0.25-0.05-0.52,0.02-0.71,0.2l-0.64,0.61c-0.47,0.45-1.26,0.17-1.33-0.48l-0.1-0.88
	c-0.03-0.26-0.18-0.49-0.41-0.61l-0.78-0.42c-0.58-0.31-0.55-1.15,0.05-1.42l0.81-0.37c0.24-0.11,0.41-0.32,0.45-0.58l0.16-0.87
	c0.12-0.64,0.92-0.88,1.36-0.39l0.6,0.65c0.18,0.19,0.43,0.29,0.69,0.25l0.88-0.12c0.65-0.09,1.12,0.6,0.79,1.17l-0.44,0.77
	c-0.13,0.23-0.14,0.5-0.02,0.74l0.39,0.8C601.45,143.37,600.94,144.03,600.29,143.9z"/>
<path class="st1" d="M1288.99,143.36l-0.87-0.18c-0.25-0.05-0.52,0.02-0.71,0.2l-0.64,0.61c-0.47,0.45-1.26,0.17-1.33-0.48
	l-0.1-0.88c-0.03-0.26-0.18-0.49-0.41-0.61l-0.78-0.42c-0.58-0.31-0.55-1.15,0.05-1.42l0.81-0.37c0.24-0.11,0.41-0.32,0.45-0.58
	l0.16-0.87c0.12-0.64,0.92-0.88,1.36-0.39l0.6,0.65c0.18,0.19,0.43,0.29,0.69,0.25l0.88-0.12c0.65-0.09,1.12,0.6,0.79,1.17
	l-0.44,0.77c-0.13,0.23-0.14,0.5-0.02,0.74l0.39,0.8C1290.15,142.83,1289.63,143.49,1288.99,143.36z"/>
<path class="st1" d="M1311.7,66.62l-0.87-0.18c-0.25-0.05-0.52,0.02-0.71,0.2l-0.64,0.61c-0.47,0.45-1.26,0.17-1.33-0.48l-0.1-0.88
	c-0.03-0.26-0.18-0.49-0.41-0.61l-0.78-0.42c-0.58-0.31-0.55-1.15,0.05-1.42l0.81-0.37c0.24-0.11,0.41-0.32,0.45-0.58l0.16-0.87
	c0.12-0.64,0.92-0.88,1.36-0.39l0.6,0.65c0.18,0.19,0.43,0.29,0.69,0.25l0.88-0.12c0.65-0.09,1.12,0.6,0.79,1.17l-0.44,0.77
	c-0.13,0.23-0.14,0.5-0.02,0.74l0.39,0.8C1312.85,66.09,1312.34,66.75,1311.7,66.62z"/>
<path class="st1" d="M1278.12,107.9l-1.65-2.43c-0.2-0.3-0.54-0.48-0.9-0.48l-2.94-0.01c-0.9,0-1.41-1.04-0.86-1.76l1.8-2.32
	c0.22-0.28,0.29-0.66,0.18-1l-0.89-2.8c-0.28-0.86,0.56-1.67,1.41-1.36l2.76,0.99c0.34,0.12,0.71,0.07,1.01-0.14l2.38-1.71
	c0.73-0.53,1.76,0.01,1.73,0.92l-0.09,2.93c-0.01,0.36,0.16,0.7,0.45,0.91l2.37,1.74c0.73,0.54,0.53,1.67-0.34,1.93l-2.82,0.82
	c-0.34,0.1-0.62,0.36-0.73,0.71l-0.92,2.79C1279.77,108.49,1278.63,108.65,1278.12,107.9z"/>
<path class="st1" d="M1576.31,118l-0.87-0.18c-0.25-0.05-0.52,0.02-0.71,0.2l-0.64,0.61c-0.47,0.45-1.26,0.17-1.33-0.48l-0.1-0.88
	c-0.03-0.26-0.18-0.49-0.41-0.61l-0.78-0.42c-0.58-0.31-0.55-1.15,0.05-1.42l0.81-0.37c0.24-0.11,0.41-0.32,0.45-0.58l0.16-0.87
	c0.12-0.64,0.92-0.88,1.36-0.39l0.6,0.65c0.18,0.19,0.43,0.29,0.69,0.25l0.88-0.12c0.65-0.09,1.12,0.6,0.79,1.17l-0.44,0.77
	c-0.13,0.23-0.14,0.5-0.02,0.74l0.39,0.8C1577.46,117.48,1576.95,118.14,1576.31,118z"/>
<path class="st1" d="M1058.77,172.22l3.82-0.79c0.54-0.11,1.09,0.05,1.49,0.43l2.81,2.7c1,0.96,2.65,0.35,2.81-1.02l0.43-3.87
	c0.06-0.54,0.39-1.02,0.87-1.28l3.43-1.84c1.22-0.65,1.16-2.42-0.1-2.98l-3.55-1.61c-0.5-0.23-0.86-0.68-0.95-1.22l-0.69-3.83
	c-0.24-1.36-1.94-1.85-2.87-0.83l-2.62,2.88c-0.37,0.4-0.91,0.6-1.46,0.53l-3.86-0.53c-1.37-0.19-2.36,1.27-1.67,2.47l1.93,3.39
	c0.27,0.48,0.29,1.06,0.05,1.55l-1.7,3.51C1056.33,171.11,1057.42,172.5,1058.77,172.22z"/>
<path class="st1" d="M1508.77,157.49l3.29-1.96c0.39-0.23,0.87-0.26,1.28-0.07l3.48,1.6c1.04,0.48,2.18-0.45,1.92-1.56l-0.85-3.74
	c-0.1-0.44,0.02-0.91,0.33-1.24l2.59-2.82c0.78-0.84,0.25-2.21-0.89-2.31l-3.82-0.35c-0.45-0.04-0.86-0.3-1.08-0.7l-1.88-3.34
	c-0.56-1-2.02-0.92-2.48,0.13l-1.51,3.52c-0.18,0.42-0.55,0.72-1,0.81l-3.76,0.75c-1.12,0.23-1.5,1.64-0.64,2.4l2.88,2.52
	c0.34,0.3,0.52,0.75,0.46,1.2l-0.44,3.8C1506.56,157.28,1507.79,158.07,1508.77,157.49z"/>
<path class="st1" d="M187.53,179.1l1.65,2.43c0.2,0.3,0.54,0.48,0.9,0.48l2.94,0.01c0.9,0,1.41,1.04,0.86,1.76l-1.8,2.32
	c-0.22,0.28-0.29,0.66-0.18,1l0.89,2.8c0.28,0.86-0.56,1.67-1.41,1.36l-2.76-0.99c-0.34-0.12-0.71-0.07-1.01,0.14l-2.38,1.71
	c-0.73,0.53-1.76-0.01-1.73-0.92l0.09-2.93c0.01-0.36-0.16-0.7-0.45-0.91l-2.37-1.74c-0.73-0.54-0.53-1.67,0.34-1.93l2.82-0.82
	c0.34-0.1,0.62-0.36,0.73-0.71l0.92-2.79C185.88,178.51,187.02,178.35,187.53,179.1z"/>
<path class="st1" d="M403.34,176.56l-3.29-1.96c-0.39-0.23-0.87-0.26-1.28-0.07l-3.48,1.6c-1.04,0.48-2.18-0.45-1.92-1.56l0.85-3.74
	c0.1-0.44-0.02-0.91-0.33-1.24l-2.59-2.82c-0.78-0.84-0.25-2.21,0.89-2.31l3.82-0.35c0.45-0.04,0.86-0.3,1.08-0.7l1.88-3.34
	c0.56-1,2.02-0.92,2.48,0.13l1.51,3.52c0.18,0.42,0.55,0.72,1,0.81l3.76,0.75c1.12,0.23,1.5,1.64,0.64,2.4l-2.88,2.52
	c-0.34,0.3-0.52,0.75-0.46,1.2l0.44,3.8C405.56,176.35,404.33,177.15,403.34,176.56z"/>
<path class="st1" d="M1574.99,50.41l5.01,2.99c0.6,0.36,1.33,0.39,1.96,0.11l5.31-2.43c1.59-0.73,3.32,0.68,2.93,2.38l-1.3,5.69
	c-0.15,0.68,0.03,1.38,0.5,1.89l3.95,4.29c1.18,1.28,0.38,3.37-1.36,3.52l-5.81,0.53c-0.69,0.06-1.31,0.46-1.65,1.07l-2.86,5.09
	c-0.86,1.52-3.09,1.4-3.77-0.2l-2.3-5.37c-0.27-0.64-0.84-1.1-1.52-1.24l-5.72-1.15c-1.71-0.34-2.29-2.5-0.97-3.65l4.39-3.84
	c0.52-0.46,0.79-1.14,0.71-1.83l-0.67-5.8C1571.62,50.73,1573.49,49.52,1574.99,50.41z"/>
<path class="st1" d="M544.11,154.71l1.67,0.34c0.49,0.1,1-0.05,1.36-0.39l1.23-1.18c0.91-0.87,2.42-0.32,2.56,0.93l0.19,1.69
	c0.06,0.5,0.35,0.93,0.79,1.17l1.5,0.8c1.11,0.59,1.06,2.2-0.09,2.72l-1.55,0.7c-0.46,0.21-0.78,0.62-0.87,1.12l-0.3,1.68
	c-0.22,1.24-1.77,1.68-2.62,0.75l-1.15-1.26c-0.34-0.37-0.83-0.55-1.33-0.48l-1.69,0.23c-1.25,0.17-2.15-1.16-1.53-2.26l0.84-1.48
	c0.25-0.43,0.26-0.96,0.05-1.41l-0.74-1.53C541.88,155.72,542.87,154.45,544.11,154.71z"/>
<path class="st1" d="M1554.08,157.83l5.01,2.99c0.6,0.36,1.33,0.39,1.96,0.11l5.31-2.43c1.59-0.73,3.32,0.68,2.93,2.38l-1.3,5.69
	c-0.15,0.68,0.03,1.38,0.5,1.89l3.95,4.29c1.18,1.28,0.38,3.37-1.36,3.52l-5.81,0.53c-0.69,0.06-1.31,0.46-1.65,1.07l-2.86,5.09
	c-0.86,1.52-3.09,1.4-3.77-0.2l-2.3-5.37c-0.27-0.64-0.84-1.1-1.52-1.24l-5.72-1.15c-1.71-0.34-2.29-2.5-0.97-3.65l4.39-3.84
	c0.52-0.46,0.79-1.14,0.71-1.83l-0.67-5.8C1550.71,158.14,1552.58,156.93,1554.08,157.83z"/>
<path class="st1" d="M329.5,155.64l-5.01,2.99c-0.6,0.36-1.33,0.39-1.96,0.11l-5.31-2.43c-1.59-0.73-3.32,0.68-2.93,2.38l1.3,5.69
	c0.15,0.68-0.03,1.38-0.5,1.89l-3.95,4.29c-1.18,1.28-0.38,3.37,1.36,3.52l5.81,0.53c0.69,0.06,1.31,0.46,1.65,1.07l2.86,5.09
	c0.86,1.52,3.09,1.4,3.77-0.2l2.3-5.37c0.27-0.64,0.84-1.1,1.52-1.24l5.72-1.15c1.71-0.34,2.29-2.5,0.97-3.65l-4.39-3.84
	c-0.52-0.46-0.79-1.14-0.71-1.83l0.68-5.8C332.88,155.96,331,154.74,329.5,155.64z"/>
<path class="st1" d="M1430.32,157.51l5.01,2.99c0.6,0.36,1.33,0.39,1.96,0.11l5.31-2.43c1.59-0.73,3.32,0.68,2.93,2.38l-1.3,5.69
	c-0.15,0.68,0.03,1.38,0.5,1.89l3.95,4.29c1.18,1.28,0.38,3.37-1.36,3.52l-5.81,0.53c-0.69,0.06-1.31,0.46-1.65,1.07l-2.86,5.09
	c-0.86,1.52-3.09,1.4-3.77-0.2l-2.3-5.37c-0.27-0.64-0.84-1.1-1.52-1.24l-5.72-1.15c-1.71-0.34-2.29-2.5-0.97-3.65l4.39-3.84
	c0.52-0.46,0.79-1.14,0.71-1.83l-0.68-5.8C1426.94,157.82,1428.82,156.61,1430.32,157.51z"/>
<path class="st1" d="M895.32,139.15l0.87,0.18c0.25,0.05,0.52-0.02,0.71-0.2l0.64-0.61c0.47-0.45,1.26-0.17,1.33,0.48l0.1,0.88
	c0.03,0.26,0.18,0.49,0.41,0.61l0.78,0.42c0.58,0.31,0.55,1.15-0.05,1.42l-0.81,0.37c-0.24,0.11-0.41,0.32-0.45,0.58l-0.16,0.87
	c-0.12,0.64-0.92,0.88-1.36,0.39l-0.6-0.65c-0.18-0.19-0.43-0.29-0.69-0.25l-0.88,0.12c-0.65,0.09-1.12-0.6-0.79-1.17l0.44-0.77
	c0.13-0.23,0.14-0.5,0.02-0.74l-0.39-0.8C894.17,139.67,894.68,139.01,895.32,139.15z"/>
<path class="st1" d="M465.62,144.64l-0.87,0.18c-0.25,0.05-0.52-0.02-0.71-0.2L463.4,144c-0.47-0.45-1.26-0.17-1.33,0.48l-0.1,0.88
	c-0.03,0.26-0.18,0.49-0.41,0.61l-0.78,0.42c-0.58,0.31-0.55,1.15,0.05,1.42l0.81,0.37c0.24,0.11,0.41,0.32,0.45,0.58l0.16,0.87
	c0.12,0.64,0.92,0.88,1.36,0.39l0.6-0.65c0.18-0.19,0.43-0.29,0.69-0.25l0.88,0.12c0.65,0.09,1.12-0.6,0.79-1.17l-0.44-0.77
	c-0.13-0.23-0.14-0.5-0.02-0.74l0.39-0.8C466.77,145.17,466.26,144.51,465.62,144.64z"/>
<path class="st1" d="M454.74,180.1l-1.65,2.43c-0.2,0.3-0.54,0.48-0.9,0.48l-2.94,0.01c-0.9,0-1.41,1.04-0.86,1.76l1.8,2.32
	c0.22,0.28,0.29,0.66,0.18,1l-0.89,2.8c-0.28,0.86,0.56,1.67,1.41,1.36l2.76-0.99c0.34-0.12,0.71-0.07,1.01,0.14l2.38,1.71
	c0.73,0.53,1.76-0.01,1.73-0.92l-0.09-2.93c-0.01-0.36,0.16-0.7,0.45-0.91l2.37-1.74c0.73-0.54,0.53-1.67-0.34-1.93l-2.82-0.82
	c-0.34-0.1-0.62-0.36-0.73-0.71l-0.92-2.79C456.4,179.51,455.25,179.35,454.74,180.1z"/>
<path class="st1" d="M578.08,39.1l-1.65,2.43c-0.2,0.3-0.54,0.48-0.9,0.48l-2.94,0.01c-0.9,0-1.41,1.04-0.86,1.76l1.8,2.32
	c0.22,0.28,0.29,0.66,0.18,1l-0.89,2.8c-0.28,0.86,0.56,1.67,1.41,1.36l2.76-0.99c0.34-0.12,0.71-0.07,1.01,0.14l2.38,1.71
	c0.73,0.53,1.76-0.01,1.73-0.92l-0.09-2.93c-0.01-0.36,0.16-0.7,0.45-0.91l2.37-1.74c0.73-0.54,0.53-1.67-0.34-1.93l-2.82-0.82
	c-0.34-0.1-0.62-0.36-0.73-0.71l-0.92-2.79C579.74,38.51,578.59,38.35,578.08,39.1z"/>
<path class="st1" d="M816.73,176.56l3.29-1.96c0.39-0.23,0.87-0.26,1.28-0.07l3.48,1.6c1.04,0.48,2.18-0.45,1.92-1.56l-0.85-3.74
	c-0.1-0.44,0.02-0.91,0.33-1.24l2.59-2.82c0.78-0.84,0.25-2.21-0.89-2.31l-3.82-0.35c-0.45-0.04-0.86-0.3-1.08-0.7l-1.88-3.34
	c-0.56-1-2.02-0.92-2.48,0.13l-1.51,3.52c-0.18,0.42-0.55,0.72-1,0.81l-3.76,0.75c-1.12,0.23-1.5,1.64-0.64,2.4l2.88,2.52
	c0.34,0.3,0.52,0.75,0.46,1.2l-0.44,3.8C814.52,176.35,815.75,177.15,816.73,176.56z"/>
<path class="st1" d="M974.57,152.64l5.01,2.99c0.6,0.36,1.33,0.39,1.96,0.11l5.31-2.43c1.59-0.73,3.32,0.68,2.93,2.38l-1.3,5.69
	c-0.15,0.68,0.03,1.38,0.5,1.89l3.95,4.29c1.18,1.28,0.38,3.37-1.36,3.52l-5.81,0.53c-0.69,0.06-1.31,0.46-1.65,1.07l-2.86,5.09
	c-0.86,1.52-3.09,1.4-3.77-0.2l-2.3-5.37c-0.27-0.64-0.84-1.1-1.52-1.24l-5.72-1.15c-1.71-0.34-2.29-2.5-0.97-3.65l4.39-3.84
	c0.52-0.46,0.79-1.14,0.71-1.83l-0.68-5.8C971.2,152.96,973.07,151.74,974.57,152.64z"/>
<path class="st1" d="M909.33,174.1l1.65,2.43c0.2,0.3,0.54,0.48,0.9,0.48l2.94,0.01c0.9,0,1.41,1.04,0.86,1.76l-1.8,2.32
	c-0.22,0.28-0.29,0.66-0.18,1l0.89,2.8c0.28,0.86-0.56,1.67-1.41,1.36l-2.76-0.99c-0.34-0.12-0.71-0.07-1.01,0.14l-2.38,1.71
	c-0.73,0.53-1.76-0.01-1.73-0.92l0.09-2.93c0.01-0.36-0.16-0.7-0.45-0.91l-2.37-1.74c-0.73-0.54-0.53-1.67,0.34-1.93l2.82-0.82
	c0.34-0.1,0.62-0.36,0.73-0.71l0.92-2.79C907.68,173.51,908.82,173.35,909.33,174.1z"/>
<path class="st1" d="M1332.48,175.45l-2.02,2.96c-0.25,0.36-0.66,0.58-1.1,0.58l-3.59,0.02c-1.11,0-1.73,1.28-1.05,2.15l2.19,2.84
	c0.27,0.35,0.35,0.8,0.22,1.22l-1.09,3.42c-0.34,1.05,0.68,2.03,1.72,1.66l3.38-1.21c0.41-0.15,0.87-0.08,1.23,0.17l2.91,2.09
	c0.9,0.65,2.15-0.02,2.11-1.12l-0.11-3.58c-0.01-0.44,0.19-0.86,0.54-1.12l2.89-2.12c0.89-0.65,0.65-2.05-0.41-2.36l-3.44-1.01
	c-0.42-0.12-0.76-0.45-0.89-0.86l-1.12-3.41C1334.5,174.74,1333.11,174.54,1332.48,175.45z"/>
<path class="st1" d="M1257.18,190.78l-1.65-2.43c-0.2-0.3-0.54-0.48-0.9-0.48l-2.94-0.01c-0.9,0-1.41-1.04-0.86-1.76l1.8-2.32
	c0.22-0.28,0.29-0.66,0.18-1l-0.89-2.8c-0.28-0.86,0.56-1.67,1.41-1.36l2.76,0.99c0.34,0.12,0.71,0.07,1.01-0.14l2.38-1.71
	c0.73-0.53,1.76,0.01,1.73,0.92l-0.09,2.93c-0.01,0.36,0.16,0.7,0.45,0.91l2.37,1.74c0.73,0.54,0.53,1.67-0.34,1.93l-2.82,0.82
	c-0.34,0.1-0.62,0.36-0.73,0.71l-0.92,2.79C1258.84,191.36,1257.69,191.53,1257.18,190.78z"/>
<path class="st1" d="M1221.49,151.24l-0.87-0.18c-0.25-0.05-0.52,0.02-0.71,0.2l-0.64,0.61c-0.47,0.45-1.26,0.17-1.33-0.48
	l-0.1-0.88c-0.03-0.26-0.18-0.49-0.41-0.61l-0.78-0.42c-0.58-0.31-0.55-1.15,0.05-1.42l0.81-0.37c0.24-0.11,0.41-0.32,0.45-0.58
	l0.16-0.87c0.12-0.64,0.92-0.88,1.36-0.39l0.6,0.65c0.18,0.19,0.43,0.29,0.69,0.25l0.88-0.12c0.65-0.09,1.12,0.6,0.79,1.17
	l-0.44,0.77c-0.13,0.23-0.14,0.5-0.02,0.74l0.39,0.8C1222.65,150.72,1222.13,151.38,1221.49,151.24z"/>
<path class="st1" d="M1180.09,191.63l-5.01-2.99c-0.6-0.36-1.33-0.39-1.96-0.11l-5.31,2.43c-1.59,0.73-3.32-0.68-2.93-2.38l1.3-5.69
	c0.15-0.68-0.03-1.38-0.5-1.89l-3.95-4.29c-1.18-1.28-0.38-3.37,1.36-3.52l5.81-0.53c0.69-0.06,1.31-0.46,1.65-1.07l2.86-5.09
	c0.86-1.52,3.09-1.4,3.77,0.2l2.3,5.37c0.27,0.64,0.84,1.1,1.52,1.24l5.72,1.15c1.71,0.34,2.29,2.5,0.97,3.65l-4.39,3.84
	c-0.52,0.46-0.79,1.14-0.71,1.83l0.68,5.8C1183.46,191.31,1181.59,192.53,1180.09,191.63z"/>
<path class="st1" d="M586.15,189.9l-1.65-2.43c-0.2-0.3-0.54-0.48-0.9-0.48l-2.94-0.01c-0.9,0-1.41-1.04-0.86-1.76l1.8-2.32
	c0.22-0.28,0.29-0.66,0.18-1l-0.89-2.8c-0.28-0.86,0.56-1.67,1.41-1.36l2.76,0.99c0.34,0.12,0.71,0.07,1.01-0.14l2.38-1.71
	c0.73-0.53,1.76,0.01,1.73,0.92l-0.09,2.93c-0.01,0.36,0.16,0.7,0.45,0.91l2.37,1.74c0.73,0.54,0.53,1.67-0.34,1.93l-2.82,0.82
	c-0.34,0.1-0.62,0.36-0.73,0.71l-0.92,2.79C587.81,190.49,586.66,190.65,586.15,189.9z"/>
<path class="st1" d="M114.33,220.9l-1.65-2.43c-0.2-0.3-0.54-0.48-0.9-0.48l-2.94-0.01c-0.9,0-1.41-1.04-0.86-1.76l1.8-2.32
	c0.22-0.28,0.29-0.66,0.18-1l-0.89-2.8c-0.28-0.86,0.56-1.67,1.41-1.36l2.76,0.99c0.34,0.12,0.71,0.07,1.01-0.14l2.38-1.71
	c0.73-0.53,1.76,0.01,1.73,0.92l-0.09,2.93c-0.01,0.36,0.16,0.7,0.45,0.91l2.37,1.74c0.73,0.54,0.53,1.67-0.34,1.93l-2.82,0.82
	c-0.34,0.1-0.62,0.36-0.73,0.71l-0.92,2.79C115.99,221.49,114.84,221.65,114.33,220.9z"/>
<path class="st1" d="M257.38,192.34l1.67-0.34c0.49-0.1,1,0.05,1.36,0.39l1.23,1.18c0.91,0.87,2.42,0.32,2.56-0.93l0.19-1.69
	c0.06-0.5,0.35-0.93,0.79-1.17l1.5-0.8c1.11-0.59,1.06-2.2-0.09-2.72l-1.55-0.7c-0.46-0.21-0.78-0.62-0.87-1.12l-0.3-1.68
	c-0.22-1.24-1.77-1.68-2.62-0.75l-1.15,1.26c-0.34,0.37-0.83,0.55-1.33,0.48l-1.69-0.23c-1.25-0.17-2.15,1.16-1.53,2.26l0.84,1.48
	c0.25,0.43,0.26,0.96,0.05,1.41l-0.74,1.53C255.15,191.32,256.14,192.59,257.38,192.34z"/>
<path class="st1" d="M728.95,173.36l-5.01-2.99c-0.6-0.36-1.33-0.39-1.96-0.11l-5.31,2.43c-1.59,0.73-3.32-0.68-2.93-2.38l1.3-5.69
	c0.15-0.68-0.03-1.38-0.5-1.89l-3.95-4.29c-1.18-1.28-0.38-3.37,1.36-3.52l5.81-0.53c0.69-0.06,1.31-0.46,1.65-1.07l2.86-5.09
	c0.86-1.52,3.09-1.4,3.77,0.2l2.3,5.37c0.27,0.64,0.84,1.1,1.52,1.24l5.72,1.15c1.71,0.34,2.29,2.5,0.97,3.65l-4.39,3.84
	c-0.52,0.46-0.79,1.14-0.71,1.83l0.67,5.8C732.32,173.04,730.45,174.26,728.95,173.36z"/>
<path class="st1" d="M196.84,158.22l3.82-0.79c0.54-0.11,1.09,0.05,1.49,0.43l2.81,2.7c1,0.96,2.65,0.35,2.81-1.02l0.43-3.87
	c0.06-0.54,0.39-1.02,0.87-1.28l3.43-1.84c1.22-0.65,1.16-2.42-0.1-2.98l-3.55-1.61c-0.5-0.23-0.86-0.68-0.95-1.22l-0.69-3.83
	c-0.24-1.36-1.94-1.85-2.87-0.83l-2.62,2.88c-0.37,0.4-0.91,0.6-1.46,0.53l-3.86-0.53c-1.37-0.19-2.36,1.27-1.67,2.47l1.93,3.39
	c0.27,0.48,0.29,1.06,0.05,1.55l-1.7,3.51C194.4,157.11,195.49,158.5,196.84,158.22z"/>
<path class="st1" d="M65.8,186.63l5.01-2.99c0.6-0.36,1.33-0.39,1.96-0.11l5.31,2.43c1.59,0.73,3.32-0.68,2.93-2.38l-1.3-5.69
	c-0.15-0.68,0.03-1.38,0.5-1.89l3.95-4.29c1.18-1.28,0.38-3.37-1.36-3.52L77,167.65c-0.69-0.06-1.31-0.46-1.65-1.07l-2.86-5.09
	c-0.86-1.52-3.09-1.4-3.77,0.2l-2.3,5.37c-0.27,0.64-0.84,1.1-1.52,1.24l-5.72,1.15c-1.71,0.34-2.29,2.5-0.97,3.65l4.39,3.84
	c0.52,0.46,0.79,1.14,0.71,1.83l-0.68,5.8C62.42,186.31,64.3,187.53,65.8,186.63z"/>
<path class="st1" d="M779.89,203.9l-1.65-2.43c-0.2-0.3-0.54-0.48-0.9-0.48l-2.94-0.01c-0.9,0-1.41-1.04-0.86-1.76l1.8-2.32
	c0.22-0.28,0.29-0.66,0.18-1l-0.89-2.8c-0.28-0.86,0.56-1.67,1.41-1.36l2.76,0.99c0.34,0.12,0.71,0.07,1.01-0.14l2.38-1.71
	c0.73-0.53,1.76,0.01,1.73,0.92l-0.09,2.93c-0.01,0.36,0.16,0.7,0.45,0.91l2.37,1.74c0.73,0.54,0.53,1.67-0.34,1.93l-2.82,0.82
	c-0.34,0.1-0.62,0.36-0.73,0.71l-0.92,2.79C781.55,204.49,780.4,204.65,779.89,203.9z"/>
<ellipse class="st0" cx="1367.64" cy="34.16" rx="8.57" ry="8.56"/>
<circle class="st0" cx="843.32" cy="22.35" r="9.68"/>
<circle class="st0" cx="239.88" cy="15.07" r="9.68"/>
<circle class="st0" cx="1303.13" cy="-5.54" r="48.41"/>
<circle class="st0" cx="133.34" cy="30.67" r="9.68"/>
<circle class="st0" cx="327.8" cy="23.84" r="9.68"/>
<ellipse class="st1" cx="288.25" cy="-20.82" rx="60.56" ry="57.53"/>
<ellipse class="st1" cx="371.36" cy="-8.59" rx="49.27" ry="49.04"/>
<circle class="st1" cx="663.48" cy="4.55" r="11.62"/>
<circle class="st1" cx="1002.61" cy="10.31" r="9.68"/>
<ellipse class="st1" cx="1476.69" cy="33.88" rx="11.55" ry="11.51"/>
<ellipse class="st1" cx="488.15" cy="-19.01" rx="60.56" ry="57.53"/>
<ellipse class="st1" cx="576.81" cy="-11.22" rx="52.82" ry="52.67"/>
<ellipse class="st1" cx="650.83" cy="-12.75" rx="48.21" ry="48.19"/>
<ellipse class="st1" cx="731.23" cy="-13.91" rx="46.39" ry="46.36"/>
<ellipse class="st1" cx="768.05" cy="13.31" rx="8.57" ry="8.56"/>
<ellipse class="st1" cx="834.41" cy="-18.6" rx="24.21" ry="24.04"/>
<circle class="st1" cx="808.63" cy="-6.52" r="41.95"/>
<ellipse class="st1" cx="875.05" cy="-18.9" rx="51.63" ry="49.05"/>
<circle class="st1" cx="957.84" cy="-8.5" r="48.41"/>
<circle class="st1" cx="1016.57" cy="-25.67" r="36.14"/>
<ellipse class="st1" cx="1512.82" cy="-14.9" rx="57.99" ry="55.09"/>
<circle class="st1" cx="1422.21" cy="2.36" r="54.36"/>
<circle class="st1" cx="1356.25" cy="-7.29" r="40.59"/>
<circle class="st1" cx="1131.28" cy="-27.33" r="30.58"/>
<circle class="st1" cx="950.73" cy="-39.15" r="36.14"/>
<ellipse class="st1" cx="1034.14" cy="-16.94" rx="51.63" ry="49.05"/>
<circle class="st1" cx="1114.82" cy="-12.38" r="48.41"/>
<circle class="st1" cx="1075.67" cy="-16.37" r="39.64"/>
<circle class="st1" cx="1182.38" cy="2.6" r="40.59"/>
<ellipse class="st1" cx="1237.52" cy="0" rx="30.58" ry="30.27"/>
<ellipse class="st1" cx="406.92" cy="33.14" rx="11.12" ry="10.56"/>
<path class="st1" d="M1575.67,19.25l-1.67,0.34c-0.49,0.1-1-0.05-1.36-0.39l-1.23-1.18c-0.91-0.87-2.42-0.32-2.56,0.93l-0.19,1.69
	c-0.06,0.5-0.35,0.93-0.79,1.17l-1.5,0.8c-1.11,0.59-1.06,2.2,0.09,2.72l1.55,0.7c0.46,0.21,0.78,0.62,0.87,1.12l0.3,1.68
	c0.22,1.24,1.77,1.68,2.62,0.75l1.15-1.26c0.34-0.37,0.83-0.55,1.33-0.48l1.69,0.23c1.25,0.17,2.15-1.16,1.53-2.26l-0.84-1.48
	c-0.25-0.43-0.26-0.96-0.05-1.41l0.74-1.53C1577.89,20.26,1576.9,18.99,1575.67,19.25z"/>
<circle class="st1" cx="1569.52" cy="-22.04" r="40.59"/>
<ellipse class="st1" cx="1527.52" cy="3.46" rx="57.99" ry="55.09"/>
<circle class="st1" cx="183.39" cy="-6.31" r="56.77"/>
<circle class="st1" cx="115.51" cy="-19.62" r="42.39"/>
<circle class="st1" cx="17.62" cy="-6.33" r="54.36"/>
<ellipse class="st1" cx="117.48" cy="-22.71" rx="57.99" ry="55.09"/>
<circle class="st1" cx="425.05" cy="-5.06" r="40.59"/>
<ellipse class="st1" cx="71.3" cy="12.83" rx="10.65" ry="10.12"/>
<ellipse class="st1" cx="694.72" cy="18.2" rx="8.57" ry="8.56"/>
<ellipse class="st1" cx="533.2" cy="27.38" rx="11.12" ry="10.56"/>
<circle class="st1" cx="914.26" cy="10.74" r="9.68"/>
<circle class="st1" cx="1147.25" cy="25.47" r="9.68"/>
<circle class="st1" cx="1214.31" cy="26.99" r="9.68"/>
<ellipse class="st1" cx="1368.27" cy="31.61" rx="8.57" ry="8.56"/>
<circle class="st1" cx="843.95" cy="20.8" r="9.68"/>
<circle class="st1" cx="240.51" cy="12.52" r="9.68"/>
<circle class="st1" cx="1303.76" cy="-8.09" r="48.41"/>
<circle class="st1" cx="133.96" cy="27.12" r="9.68"/>
<circle class="st1" cx="328.43" cy="21.28" r="9.68"/>
<path class="st1" d="M1459.03,71.62l-5.01-2.99c-0.6-0.36-1.33-0.39-1.96-0.11l-5.31,2.43c-1.59,0.73-3.32-0.68-2.93-2.38l1.3-5.69
	c0.15-0.68-0.03-1.38-0.5-1.89l-3.95-4.29c-1.18-1.28-0.38-3.37,1.36-3.52l5.81-0.53c0.69-0.06,1.31-0.46,1.65-1.07l2.86-5.09
	c0.86-1.52,3.09-1.4,3.77,0.2l2.3,5.37c0.27,0.64,0.84,1.1,1.52,1.24l5.72,1.15c1.71,0.34,2.29,2.5,0.97,3.65l-4.39,3.84
	c-0.52,0.46-0.79,1.14-0.71,1.83l0.68,5.8C1462.4,71.3,1460.53,72.51,1459.03,71.62z"/>
<circle class="st1" cx="1001.61" cy="14.59" r="9.68"/>
</svg>
